# 3ds Max Wavefront OBJ Exporter v0.97b - (c)2007 guruware
# File Created: 30.08.2016 14:22:16

mtllib CoffeeCupwithcofee.mtl

#
# object CoffeeCupwithcofee
#

v  -0.0000 0.0000 0.0000
v  0.0027 0.0000 0.0017
v  0.0018 0.0000 0.0026
v  0.0042 0.0165 0.0027
v  0.0029 0.0165 0.0041
v  0.0043 0.0165 0.0028
v  0.0029 0.0165 0.0042
v  0.0044 0.0165 0.0028
v  0.0030 0.0165 0.0043
v  0.0044 0.0166 0.0028
v  0.0030 0.0166 0.0043
v  0.0043 0.0167 0.0028
v  0.0029 0.0167 0.0042
v  0.0042 0.0167 0.0027
v  0.0029 0.0167 0.0041
v  0.0041 0.0167 0.0026
v  0.0028 0.0167 0.0040
v  0.0036 0.0147 0.0023
v  0.0025 0.0147 0.0035
v  -0.0000 0.0147 0.0000
v  0.0031 0.0000 0.0006
v  0.0049 0.0165 0.0009
v  0.0051 0.0165 0.0009
v  0.0051 0.0166 0.0009
v  0.0050 0.0167 0.0009
v  0.0049 0.0167 0.0009
v  0.0048 0.0167 0.0008
v  0.0042 0.0147 0.0007
v  0.0031 0.0000 -0.0007
v  0.0049 0.0165 -0.0011
v  0.0050 0.0165 -0.0011
v  0.0051 0.0165 -0.0011
v  0.0051 0.0166 -0.0011
v  0.0050 0.0167 -0.0011
v  0.0049 0.0167 -0.0011
v  0.0047 0.0167 -0.0011
v  0.0042 0.0147 -0.0009
v  0.0026 0.0000 -0.0018
v  0.0041 0.0165 -0.0029
v  0.0042 0.0165 -0.0029
v  0.0043 0.0165 -0.0030
v  0.0043 0.0166 -0.0030
v  0.0042 0.0167 -0.0029
v  0.0041 0.0167 -0.0029
v  0.0040 0.0167 -0.0028
v  0.0035 0.0147 -0.0025
v  0.0017 0.0000 -0.0027
v  0.0027 0.0165 -0.0042
v  0.0028 0.0165 -0.0043
v  0.0028 0.0165 -0.0044
v  0.0028 0.0166 -0.0044
v  0.0028 0.0167 -0.0043
v  0.0027 0.0167 -0.0042
v  0.0026 0.0167 -0.0041
v  0.0023 0.0147 -0.0036
v  0.0006 0.0000 -0.0031
v  0.0009 0.0165 -0.0049
v  0.0009 0.0165 -0.0051
v  0.0009 0.0166 -0.0051
v  0.0009 0.0167 -0.0050
v  0.0009 0.0167 -0.0049
v  0.0008 0.0167 -0.0048
v  0.0007 0.0147 -0.0042
v  -0.0007 0.0000 -0.0031
v  -0.0011 0.0165 -0.0049
v  -0.0011 0.0165 -0.0050
v  -0.0011 0.0165 -0.0051
v  -0.0011 0.0166 -0.0051
v  -0.0011 0.0167 -0.0050
v  -0.0011 0.0167 -0.0049
v  -0.0011 0.0167 -0.0047
v  -0.0009 0.0147 -0.0042
v  -0.0018 0.0000 -0.0026
v  -0.0029 0.0165 -0.0041
v  -0.0029 0.0165 -0.0042
v  -0.0030 0.0165 -0.0043
v  -0.0030 0.0166 -0.0043
v  -0.0029 0.0167 -0.0042
v  -0.0029 0.0167 -0.0041
v  -0.0028 0.0167 -0.0040
v  -0.0025 0.0147 -0.0035
v  -0.0027 0.0000 -0.0017
v  -0.0042 0.0165 -0.0027
v  -0.0043 0.0165 -0.0028
v  -0.0044 0.0165 -0.0028
v  -0.0044 0.0166 -0.0028
v  -0.0043 0.0167 -0.0028
v  -0.0042 0.0167 -0.0027
v  -0.0041 0.0167 -0.0026
v  -0.0036 0.0147 -0.0023
v  -0.0031 0.0000 -0.0006
v  -0.0049 0.0165 -0.0009
v  -0.0051 0.0165 -0.0009
v  -0.0051 0.0166 -0.0009
v  -0.0050 0.0167 -0.0009
v  -0.0049 0.0167 -0.0009
v  -0.0048 0.0167 -0.0008
v  -0.0042 0.0147 -0.0007
v  -0.0031 0.0000 0.0007
v  -0.0049 0.0165 0.0011
v  -0.0050 0.0165 0.0011
v  -0.0051 0.0165 0.0011
v  -0.0051 0.0166 0.0011
v  -0.0050 0.0167 0.0011
v  -0.0049 0.0167 0.0011
v  -0.0047 0.0167 0.0011
v  -0.0042 0.0147 0.0009
v  -0.0026 0.0000 0.0018
v  -0.0041 0.0165 0.0029
v  -0.0042 0.0165 0.0029
v  -0.0043 0.0165 0.0030
v  -0.0043 0.0166 0.0030
v  -0.0042 0.0167 0.0029
v  -0.0041 0.0167 0.0029
v  -0.0040 0.0167 0.0028
v  -0.0035 0.0147 0.0025
v  -0.0017 0.0000 0.0027
v  -0.0027 0.0165 0.0042
v  -0.0028 0.0165 0.0043
v  -0.0028 0.0165 0.0044
v  -0.0028 0.0166 0.0044
v  -0.0028 0.0167 0.0043
v  -0.0027 0.0167 0.0042
v  -0.0026 0.0167 0.0041
v  -0.0023 0.0147 0.0036
v  -0.0006 0.0000 0.0031
v  -0.0009 0.0165 0.0049
v  -0.0009 0.0165 0.0051
v  -0.0009 0.0166 0.0051
v  -0.0009 0.0167 0.0050
v  -0.0009 0.0167 0.0049
v  -0.0008 0.0167 0.0048
v  -0.0007 0.0147 0.0042
v  0.0007 0.0000 0.0031
v  0.0011 0.0165 0.0049
v  0.0011 0.0165 0.0050
v  0.0011 0.0165 0.0051
v  0.0011 0.0166 0.0051
v  0.0011 0.0167 0.0050
v  0.0011 0.0167 0.0049
v  0.0011 0.0167 0.0047
v  0.0009 0.0147 0.0042
# 142 vertices

vn 0.0000 -1.0000 -0.0000
vn -0.0000 -1.0000 -0.0000
vn -0.0000 -1.0000 0.0000
vn 0.8382 -0.1104 0.5340
vn 0.5701 -0.1104 0.8141
vn 0.3360 -0.9172 0.2140
vn 0.2285 -0.9172 0.3263
vn 0.0651 -0.9935 0.0929
vn 0.0957 -0.9935 0.0610
vn 0.7713 -0.4046 0.4914
vn 0.5245 -0.4046 0.7491
vn 0.8005 0.3148 0.5100
vn 0.5444 0.3148 0.7775
vn 0.4316 0.8592 0.2749
vn 0.2935 0.8592 0.4191
vn -0.1169 0.9904 -0.0745
vn -0.0795 0.9904 -0.1135
vn -0.2883 0.9398 -0.1837
vn -0.1961 0.9398 -0.2800
vn -0.8103 0.2774 -0.5162
vn -0.5511 0.2774 -0.7870
vn 0.0000 1.0000 -0.0000
vn 0.0000 1.0000 0.0000
vn 0.9788 -0.1104 0.1726
vn 0.3923 -0.9172 0.0692
vn 0.1117 -0.9935 0.0197
vn 0.9006 -0.4046 0.1588
vn 0.9347 0.3148 0.1648
vn 0.5039 0.8592 0.0889
vn -0.1365 0.9904 -0.0241
vn -0.3366 0.9398 -0.0594
vn -0.9462 0.2774 -0.1668
vn -0.0000 1.0000 0.0000
vn 0.0000 -1.0000 0.0000
vn 0.9703 -0.1104 -0.2151
vn 0.3889 -0.9172 -0.0862
vn 0.1108 -0.9935 -0.0246
vn 0.8928 -0.4046 -0.1979
vn 0.9267 0.3148 -0.2054
vn 0.4996 0.8592 -0.1107
vn -0.1353 0.9904 0.0300
vn -0.3337 0.9398 0.0740
vn -0.9380 0.2774 0.2079
vn -0.0000 1.0000 -0.0000
vn 0.8141 -0.1104 -0.5701
vn 0.3263 -0.9172 -0.2285
vn 0.0929 -0.9935 -0.0651
vn 0.7491 -0.4046 -0.5245
vn 0.7775 0.3148 -0.5444
vn 0.4191 0.8592 -0.2935
vn -0.1135 0.9904 0.0795
vn -0.2800 0.9398 0.1961
vn -0.7870 0.2774 0.5511
vn 0.5340 -0.1104 -0.8382
vn 0.2140 -0.9172 -0.3360
vn 0.0610 -0.9935 -0.0957
vn 0.4914 -0.4046 -0.7713
vn 0.5100 0.3148 -0.8005
vn 0.2749 0.8592 -0.4316
vn -0.0745 0.9904 0.1169
vn -0.1837 0.9398 0.2883
vn -0.5162 0.2774 0.8103
vn 0.1726 -0.1104 -0.9788
vn 0.0692 -0.9172 -0.3923
vn 0.0197 -0.9935 -0.1117
vn 0.1588 -0.4046 -0.9006
vn 0.1648 0.3148 -0.9347
vn 0.0889 0.8592 -0.5039
vn -0.0241 0.9904 0.1365
vn -0.0594 0.9398 0.3366
vn -0.1668 0.2774 0.9462
vn -0.2151 -0.1104 -0.9703
vn -0.0862 -0.9172 -0.3889
vn -0.0246 -0.9935 -0.1108
vn -0.1979 -0.4046 -0.8928
vn -0.2054 0.3148 -0.9267
vn -0.1108 0.8592 -0.4996
vn 0.0300 0.9904 0.1353
vn 0.0740 0.9398 0.3337
vn 0.2079 0.2774 0.9380
vn -0.5701 -0.1104 -0.8141
vn -0.2285 -0.9172 -0.3263
vn -0.0651 -0.9935 -0.0929
vn -0.5245 -0.4046 -0.7491
vn -0.5444 0.3148 -0.7775
vn -0.2935 0.8592 -0.4192
vn 0.0795 0.9904 0.1135
vn 0.1961 0.9398 0.2800
vn 0.5511 0.2774 0.7870
vn -0.8382 -0.1104 -0.5340
vn -0.3360 -0.9172 -0.2140
vn -0.0957 -0.9935 -0.0610
vn -0.7713 -0.4046 -0.4914
vn -0.8005 0.3148 -0.5100
vn -0.4316 0.8592 -0.2749
vn 0.1169 0.9904 0.0745
vn 0.2883 0.9398 0.1837
vn 0.8103 0.2774 0.5162
vn -0.9788 -0.1104 -0.1726
vn -0.3923 -0.9172 -0.0692
vn -0.1117 -0.9935 -0.0197
vn -0.9006 -0.4046 -0.1588
vn -0.9347 0.3148 -0.1648
vn -0.5039 0.8592 -0.0889
vn 0.1365 0.9904 0.0241
vn 0.3366 0.9398 0.0594
vn 0.9462 0.2774 0.1668
vn -0.9703 -0.1104 0.2151
vn -0.3889 -0.9172 0.0862
vn -0.1108 -0.9935 0.0246
vn -0.8928 -0.4046 0.1979
vn -0.9267 0.3148 0.2054
vn -0.4996 0.8592 0.1108
vn 0.1353 0.9904 -0.0300
vn 0.3337 0.9398 -0.0740
vn 0.9380 0.2774 -0.2079
vn -0.8141 -0.1104 0.5701
vn -0.3263 -0.9172 0.2285
vn -0.0929 -0.9935 0.0651
vn -0.7491 -0.4046 0.5245
vn -0.7775 0.3148 0.5444
vn -0.4192 0.8592 0.2935
vn 0.1135 0.9904 -0.0795
vn 0.2800 0.9398 -0.1960
vn 0.7870 0.2774 -0.5511
vn -0.5340 -0.1104 0.8382
vn -0.2140 -0.9172 0.3360
vn -0.0610 -0.9935 0.0957
vn -0.4914 -0.4046 0.7713
vn -0.5100 0.3148 0.8005
vn -0.2749 0.8592 0.4316
vn 0.0745 0.9904 -0.1169
vn 0.1837 0.9398 -0.2883
vn 0.5162 0.2774 -0.8103
vn -0.1726 -0.1104 0.9788
vn -0.0692 -0.9172 0.3923
vn -0.0197 -0.9935 0.1117
vn -0.1588 -0.4046 0.9006
vn -0.1648 0.3148 0.9347
vn -0.0889 0.8592 0.5039
vn 0.0241 0.9904 -0.1365
vn 0.0594 0.9398 -0.3366
vn 0.1668 0.2774 -0.9462
vn 0.2151 -0.1104 0.9703
vn 0.0862 -0.9172 0.3889
vn 0.0246 -0.9935 0.1108
vn 0.1979 -0.4046 0.8928
vn 0.2054 0.3148 0.9267
vn 0.1107 0.8592 0.4996
vn -0.0300 0.9904 -0.1353
vn -0.0740 0.9398 -0.3337
vn -0.2079 0.2774 -0.9380
# 152 vertex normals

vt 0.0000 -0.0000 0.0000
vt 0.0625 0.0798 0.0000
vt 0.0000 0.0798 0.0000
vt 0.0625 0.4965 0.0000
vt 0.0000 0.4965 0.0000
vt 0.0625 0.4997 0.0000
vt 0.0000 0.4997 0.0000
vt 0.0625 0.5016 0.0000
vt 0.0000 0.5016 0.0000
vt 0.0625 0.5042 0.0000
vt 0.0000 0.5042 0.0000
vt 0.0625 0.5069 0.0000
vt 0.0000 0.5069 0.0000
vt 0.0625 0.5097 0.0000
vt 0.0000 0.5097 0.0000
vt 0.0625 0.5140 0.0000
vt 0.0000 0.5140 0.0000
vt 0.0625 0.9295 0.0000
vt 0.0000 0.9295 0.0000
vt 0.0625 1.0000 0.0000
vt 0.0625 -0.0000 0.0000
vt 0.1250 0.0798 0.0000
vt 0.1250 0.4965 0.0000
vt 0.1250 0.4997 0.0000
vt 0.1250 0.5016 0.0000
vt 0.1250 0.5042 0.0000
vt 0.1250 0.5069 0.0000
vt 0.1250 0.5097 0.0000
vt 0.1250 0.5140 0.0000
vt 0.1250 0.9295 0.0000
vt 0.1250 1.0000 0.0000
vt 0.1250 -0.0000 0.0000
vt 0.1875 0.0798 0.0000
vt 0.1875 0.4965 0.0000
vt 0.1875 0.4997 0.0000
vt 0.1875 0.5016 0.0000
vt 0.1875 0.5042 0.0000
vt 0.1875 0.5069 0.0000
vt 0.1875 0.5097 0.0000
vt 0.1875 0.5140 0.0000
vt 0.1875 0.9295 0.0000
vt 0.1875 1.0000 0.0000
vt 0.1875 -0.0000 0.0000
vt 0.2500 0.0798 0.0000
vt 0.2500 0.4965 0.0000
vt 0.2500 0.4997 0.0000
vt 0.2500 0.5016 0.0000
vt 0.2500 0.5042 0.0000
vt 0.2500 0.5069 0.0000
vt 0.2500 0.5097 0.0000
vt 0.2500 0.5140 0.0000
vt 0.2500 0.9295 0.0000
vt 0.2500 1.0000 0.0000
vt 0.2500 -0.0000 0.0000
vt 0.3125 0.0798 0.0000
vt 0.3125 0.4965 0.0000
vt 0.3125 0.4997 0.0000
vt 0.3125 0.5016 0.0000
vt 0.3125 0.5042 0.0000
vt 0.3125 0.5069 0.0000
vt 0.3125 0.5097 0.0000
vt 0.3125 0.5140 0.0000
vt 0.3125 0.9295 0.0000
vt 0.3125 1.0000 0.0000
vt 0.3125 -0.0000 0.0000
vt 0.3750 0.0798 0.0000
vt 0.3750 0.4965 0.0000
vt 0.3750 0.4997 0.0000
vt 0.3750 0.5016 0.0000
vt 0.3750 0.5042 0.0000
vt 0.3750 0.5069 0.0000
vt 0.3750 0.5097 0.0000
vt 0.3750 0.5140 0.0000
vt 0.3750 0.9295 0.0000
vt 0.3750 1.0000 0.0000
vt 0.3750 -0.0000 0.0000
vt 0.4375 0.0798 0.0000
vt 0.4375 0.4965 0.0000
vt 0.4375 0.4997 0.0000
vt 0.4375 0.5016 0.0000
vt 0.4375 0.5042 0.0000
vt 0.4375 0.5069 0.0000
vt 0.4375 0.5097 0.0000
vt 0.4375 0.5140 0.0000
vt 0.4375 0.9295 0.0000
vt 0.4375 1.0000 0.0000
vt 0.4375 -0.0000 0.0000
vt 0.5000 0.0798 0.0000
vt 0.5000 0.4965 0.0000
vt 0.5000 0.4997 0.0000
vt 0.5000 0.5016 0.0000
vt 0.5000 0.5042 0.0000
vt 0.5000 0.5069 0.0000
vt 0.5000 0.5097 0.0000
vt 0.5000 0.5140 0.0000
vt 0.5000 0.9295 0.0000
vt 0.5000 1.0000 0.0000
vt 0.5000 -0.0000 0.0000
vt 0.5625 0.0798 0.0000
vt 0.5625 0.4965 0.0000
vt 0.5625 0.4997 0.0000
vt 0.5625 0.5016 0.0000
vt 0.5625 0.5042 0.0000
vt 0.5625 0.5069 0.0000
vt 0.5625 0.5097 0.0000
vt 0.5625 0.5140 0.0000
vt 0.5625 0.9295 0.0000
vt 0.5625 1.0000 0.0000
vt 0.5625 -0.0000 0.0000
vt 0.6250 0.0798 0.0000
vt 0.6250 0.4965 0.0000
vt 0.6250 0.4997 0.0000
vt 0.6250 0.5016 0.0000
vt 0.6250 0.5042 0.0000
vt 0.6250 0.5069 0.0000
vt 0.6250 0.5097 0.0000
vt 0.6250 0.5140 0.0000
vt 0.6250 0.9295 0.0000
vt 0.6250 1.0000 0.0000
vt 0.6250 -0.0000 0.0000
vt 0.6875 0.0798 0.0000
vt 0.6875 0.4965 0.0000
vt 0.6875 0.4997 0.0000
vt 0.6875 0.5016 0.0000
vt 0.6875 0.5042 0.0000
vt 0.6875 0.5069 0.0000
vt 0.6875 0.5097 0.0000
vt 0.6875 0.5140 0.0000
vt 0.6875 0.9295 0.0000
vt 0.6875 1.0000 0.0000
vt 0.6875 -0.0000 0.0000
vt 0.7500 0.0798 0.0000
vt 0.7500 0.4965 0.0000
vt 0.7500 0.4997 0.0000
vt 0.7500 0.5016 0.0000
vt 0.7500 0.5042 0.0000
vt 0.7500 0.5069 0.0000
vt 0.7500 0.5097 0.0000
vt 0.7500 0.5140 0.0000
vt 0.7500 0.9295 0.0000
vt 0.7500 1.0000 0.0000
vt 0.7500 -0.0000 0.0000
vt 0.8125 0.0798 0.0000
vt 0.8125 0.4965 0.0000
vt 0.8125 0.4997 0.0000
vt 0.8125 0.5016 0.0000
vt 0.8125 0.5042 0.0000
vt 0.8125 0.5069 0.0000
vt 0.8125 0.5097 0.0000
vt 0.8125 0.5140 0.0000
vt 0.8125 0.9295 0.0000
vt 0.8125 1.0000 0.0000
vt 0.8125 0.0000 0.0000
vt 0.8750 0.0798 0.0000
vt 0.8750 0.4965 0.0000
vt 0.8750 0.4997 0.0000
vt 0.8750 0.5016 0.0000
vt 0.8750 0.5042 0.0000
vt 0.8750 0.5069 0.0000
vt 0.8750 0.5097 0.0000
vt 0.8750 0.5140 0.0000
vt 0.8750 0.9295 0.0000
vt 0.8750 1.0000 0.0000
vt 0.8750 0.0000 0.0000
vt 0.9375 0.0798 0.0000
vt 0.9375 0.4965 0.0000
vt 0.9375 0.4997 0.0000
vt 0.9375 0.5016 0.0000
vt 0.9375 0.5042 0.0000
vt 0.9375 0.5069 0.0000
vt 0.9375 0.5097 0.0000
vt 0.9375 0.5140 0.0000
vt 0.9375 0.9295 0.0000
vt 0.9375 1.0000 0.0000
vt 0.9375 0.0000 0.0000
vt 1.0000 0.0798 0.0000
vt 1.0000 0.4965 0.0000
vt 1.0000 0.4997 0.0000
vt 1.0000 0.5016 0.0000
vt 1.0000 0.5042 0.0000
vt 1.0000 0.5069 0.0000
vt 1.0000 0.5097 0.0000
vt 1.0000 0.5140 0.0000
vt 1.0000 0.9295 0.0000
vt 1.0000 1.0000 0.0000
# 185 texture coords

g CoffeeCupwithcofee
usemtl 03___Defaultf
s 1
f 1/1/1 2/2/2 3/3/3 
s 4
f 4/4/4 5/5/5 3/3/5 2/2/4 
s 2
f 6/6/6 7/7/7 5/5/8 4/4/9 
f 8/8/10 9/9/11 7/7/7 6/6/6 
f 10/10/12 11/11/13 9/9/11 8/8/10 
f 12/12/14 13/13/15 11/11/13 10/10/12 
f 14/14/16 15/15/17 13/13/15 12/12/14 
f 16/16/18 17/17/19 15/15/17 14/14/16 
s 4
f 18/18/20 19/19/21 17/17/21 16/16/20 
s 2
f 19/19/22 18/18/23 20/20/22 
s 1
f 1/21/1 21/22/1 2/2/2 
s 4
f 22/23/24 4/4/4 2/2/4 21/22/24 
s 2
f 23/24/25 6/6/6 4/4/9 22/23/26 
f 23/25/27 8/8/10 6/6/6 23/24/25 
f 24/26/28 10/10/12 8/8/10 23/25/27 
f 25/27/29 12/12/14 10/10/12 24/26/28 
f 26/28/30 14/14/16 12/12/14 25/27/29 
f 27/29/31 16/16/18 14/14/16 26/28/30 
s 4
f 28/30/32 18/18/20 16/16/20 27/29/32 
s 2
f 18/18/23 28/30/33 20/31/22 
s 1
f 1/32/1 29/33/34 21/22/1 
s 4
f 30/34/35 22/23/24 21/22/24 29/33/35 
s 2
f 31/35/36 23/24/25 22/23/26 30/34/37 
f 32/36/38 23/25/27 23/24/25 31/35/36 
f 33/37/39 24/26/28 23/25/27 32/36/38 
f 34/38/40 25/27/29 24/26/28 33/37/39 
f 35/39/41 26/28/30 25/27/29 34/38/40 
f 36/40/42 27/29/31 26/28/30 35/39/41 
s 4
f 37/41/43 28/30/32 27/29/32 36/40/43 
s 2
f 28/30/33 37/41/44 20/42/22 
s 1
f 1/43/1 38/44/1 29/33/34 
s 4
f 39/45/45 30/34/35 29/33/35 38/44/45 
s 2
f 40/46/46 31/35/36 30/34/37 39/45/47 
f 41/47/48 32/36/38 31/35/36 40/46/46 
f 42/48/49 33/37/39 32/36/38 41/47/48 
f 43/49/50 34/38/40 33/37/39 42/48/49 
f 44/50/51 35/39/41 34/38/40 43/49/50 
f 45/51/52 36/40/42 35/39/41 44/50/51 
s 4
f 46/52/53 37/41/43 36/40/43 45/51/53 
s 2
f 37/41/44 46/52/22 20/53/22 
s 1
f 1/54/1 47/55/2 38/44/1 
s 4
f 48/56/54 39/45/45 38/44/45 47/55/54 
s 2
f 49/57/55 40/46/46 39/45/47 48/56/56 
f 50/58/57 41/47/48 40/46/46 49/57/55 
f 51/59/58 42/48/49 41/47/48 50/58/57 
f 52/60/59 43/49/50 42/48/49 51/59/58 
f 53/61/60 44/50/51 43/49/50 52/60/59 
f 54/62/61 45/51/52 44/50/51 53/61/60 
s 4
f 55/63/62 46/52/53 45/51/53 54/62/62 
s 2
f 46/52/22 55/63/23 20/64/22 
s 1
f 1/65/1 56/66/1 47/55/2 
s 4
f 57/67/63 48/56/54 47/55/54 56/66/63 
s 2
f 58/68/64 49/57/55 48/56/56 57/67/65 
f 58/69/66 50/58/57 49/57/55 58/68/64 
f 59/70/67 51/59/58 50/58/57 58/69/66 
f 60/71/68 52/60/59 51/59/58 59/70/67 
f 61/72/69 53/61/60 52/60/59 60/71/68 
f 62/73/70 54/62/61 53/61/60 61/72/69 
s 4
f 63/74/71 55/63/62 54/62/62 62/73/71 
s 2
f 55/63/23 63/74/33 20/75/22 
s 1
f 1/76/1 64/77/34 56/66/1 
s 4
f 65/78/72 57/67/63 56/66/63 64/77/72 
s 2
f 66/79/73 58/68/64 57/67/65 65/78/74 
f 67/80/75 58/69/66 58/68/64 66/79/73 
f 68/81/76 59/70/67 58/69/66 67/80/75 
f 69/82/77 60/71/68 59/70/67 68/81/76 
f 70/83/78 61/72/69 60/71/68 69/82/77 
f 71/84/79 62/73/70 61/72/69 70/83/78 
s 4
f 72/85/80 63/74/71 62/73/71 71/84/80 
s 2
f 63/74/33 72/85/44 20/86/22 
s 1
f 1/87/1 73/88/3 64/77/34 
s 4
f 74/89/81 65/78/72 64/77/72 73/88/81 
s 2
f 75/90/82 66/79/73 65/78/74 74/89/83 
f 76/91/84 67/80/75 66/79/73 75/90/82 
f 77/92/85 68/81/76 67/80/75 76/91/84 
f 78/93/86 69/82/77 68/81/76 77/92/85 
f 79/94/87 70/83/78 69/82/77 78/93/86 
f 80/95/88 71/84/79 70/83/78 79/94/87 
s 4
f 81/96/89 72/85/80 71/84/80 80/95/89 
s 2
f 72/85/44 81/96/22 20/97/22 
s 1
f 1/98/1 82/99/2 73/88/3 
s 4
f 83/100/90 74/89/81 73/88/81 82/99/90 
s 2
f 84/101/91 75/90/82 74/89/83 83/100/92 
f 85/102/93 76/91/84 75/90/82 84/101/91 
f 86/103/94 77/92/85 76/91/84 85/102/93 
f 87/104/95 78/93/86 77/92/85 86/103/94 
f 88/105/96 79/94/87 78/93/86 87/104/95 
f 89/106/97 80/95/88 79/94/87 88/105/96 
s 4
f 90/107/98 81/96/89 80/95/89 89/106/98 
s 2
f 81/96/22 90/107/23 20/108/22 
s 1
f 1/109/1 91/110/1 82/99/2 
s 4
f 92/111/99 83/100/90 82/99/90 91/110/99 
s 2
f 93/112/100 84/101/91 83/100/92 92/111/101 
f 93/113/102 85/102/93 84/101/91 93/112/100 
f 94/114/103 86/103/94 85/102/93 93/113/102 
f 95/115/104 87/104/95 86/103/94 94/114/103 
f 96/116/105 88/105/96 87/104/95 95/115/104 
f 97/117/106 89/106/97 88/105/96 96/116/105 
s 4
f 98/118/107 90/107/98 89/106/98 97/117/107 
s 2
f 90/107/23 98/118/33 20/119/22 
s 1
f 1/120/1 99/121/34 91/110/1 
s 4
f 100/122/108 92/111/99 91/110/99 99/121/108 
s 2
f 101/123/109 93/112/100 92/111/101 100/122/110 
f 102/124/111 93/113/102 93/112/100 101/123/109 
f 103/125/112 94/114/103 93/113/102 102/124/111 
f 104/126/113 95/115/104 94/114/103 103/125/112 
f 105/127/114 96/116/105 95/115/104 104/126/113 
f 106/128/115 97/117/106 96/116/105 105/127/114 
s 4
f 107/129/116 98/118/107 97/117/107 106/128/116 
s 2
f 98/118/33 107/129/44 20/130/22 
s 1
f 1/131/1 108/132/1 99/121/34 
s 4
f 109/133/117 100/122/108 99/121/108 108/132/117 
s 2
f 110/134/118 101/123/109 100/122/110 109/133/119 
f 111/135/120 102/124/111 101/123/109 110/134/118 
f 112/136/121 103/125/112 102/124/111 111/135/120 
f 113/137/122 104/126/113 103/125/112 112/136/121 
f 114/138/123 105/127/114 104/126/113 113/137/122 
f 115/139/124 106/128/115 105/127/114 114/138/123 
s 4
f 116/140/125 107/129/116 106/128/116 115/139/125 
s 2
f 107/129/44 116/140/22 20/141/22 
s 1
f 1/142/1 117/143/2 108/132/1 
s 4
f 118/144/126 109/133/117 108/132/117 117/143/126 
s 2
f 119/145/127 110/134/118 109/133/119 118/144/128 
f 120/146/129 111/135/120 110/134/118 119/145/127 
f 121/147/130 112/136/121 111/135/120 120/146/129 
f 122/148/131 113/137/122 112/136/121 121/147/130 
f 123/149/132 114/138/123 113/137/122 122/148/131 
f 124/150/133 115/139/124 114/138/123 123/149/132 
s 4
f 125/151/134 116/140/125 115/139/125 124/150/134 
s 2
f 116/140/22 125/151/23 20/152/22 
s 1
f 1/153/1 126/154/1 117/143/2 
s 4
f 127/155/135 118/144/126 117/143/126 126/154/135 
s 2
f 128/156/136 119/145/127 118/144/128 127/155/137 
f 128/157/138 120/146/129 119/145/127 128/156/136 
f 129/158/139 121/147/130 120/146/129 128/157/138 
f 130/159/140 122/148/131 121/147/130 129/158/139 
f 131/160/141 123/149/132 122/148/131 130/159/140 
f 132/161/142 124/150/133 123/149/132 131/160/141 
s 4
f 133/162/143 125/151/134 124/150/134 132/161/143 
s 2
f 125/151/23 133/162/33 20/163/22 
s 1
f 1/164/1 134/165/34 126/154/1 
s 4
f 135/166/144 127/155/135 126/154/135 134/165/144 
s 2
f 136/167/145 128/156/136 127/155/137 135/166/146 
f 137/168/147 128/157/138 128/156/136 136/167/145 
f 138/169/148 129/158/139 128/157/138 137/168/147 
f 139/170/149 130/159/140 129/158/139 138/169/148 
f 140/171/150 131/160/141 130/159/140 139/170/149 
f 141/172/151 132/161/142 131/160/141 140/171/150 
s 4
f 142/173/152 133/162/143 132/161/143 141/172/152 
s 2
f 133/162/33 142/173/44 20/174/22 
s 1
f 1/175/1 3/176/3 134/165/34 
s 4
f 5/177/5 135/166/144 134/165/144 3/176/5 
s 2
f 7/178/7 136/167/145 135/166/146 5/177/8 
f 9/179/11 137/168/147 136/167/145 7/178/7 
f 11/180/13 138/169/148 137/168/147 9/179/11 
f 13/181/15 139/170/149 138/169/148 11/180/13 
f 15/182/17 140/171/150 139/170/149 13/181/15 
f 17/183/19 141/172/151 140/171/150 15/182/17 
s 4
f 19/184/21 142/173/152 141/172/152 17/183/21 
s 2
f 142/173/44 19/184/22 20/185/22 
# 128 polygons - 32 triangles

